<svg xmlns="http://www.w3.org/2000/svg" viewBox="0 0 64 64" role="img" aria-labelledby="title desc">
  <title id="title">web-ts-toolkit docs icon</title>
  <desc id="desc">An orange rounded-square icon with a white document and code marks.</desc>
  <defs>
    <linearGradient id="bg" x1="10" y1="8" x2="54" y2="56" gradientUnits="userSpaceOnUse">
      <stop offset="0" stop-color="#ff9f66" />
      <stop offset="1" stop-color="#c25800" />
    </linearGradient>
  </defs>
  <rect x="4" y="4" width="56" height="56" rx="14" fill="url(#bg)" />
  <path d="M21 15h17l10 10v20c0 3.314-2.686 6-6 6H21c-3.314 0-6-2.686-6-6V21c0-3.314 2.686-6 6-6Z" fill="#fff8f1" />
  <path d="M38 15v8c0 1.657 1.343 3 3 3h7Z" fill="#ffd1b3" />
  <path d="M27 29l-6 4 6 4" fill="none" stroke="#c25800" stroke-linecap="round" stroke-linejoin="round" stroke-width="3" />
  <path d="M37 29l6 4-6 4" fill="none" stroke="#c25800" stroke-linecap="round" stroke-linejoin="round" stroke-width="3" />
  <path d="M24 42h16" fill="none" stroke="#e06800" stroke-linecap="round" stroke-width="3" />
</svg>
